<svg width="279" height="46" viewBox="0 0 279 46" fill="none" xmlns="http://www.w3.org/2000/svg">
<circle cx="140" cy="24" r="22" fill="#99CCEE"/>
<path d="M87.64 37.4C85.4 37.4 82.88 37.1467 80.08 36.64V33.76C83.2533 34.4267 85.9067 34.76 88.04 34.76C91.5867 34.76 93.36 33.76 93.36 31.76V27.32C93.36 26.2267 92.7733 25.5067 91.6 25.16C91.04 25.0267 90.5333 24.9467 90.08 24.92C89.6533 24.8667 89.0933 24.84 88.4 24.84H83.4V22.36H87.72C88.4133 22.36 88.9733 22.3467 89.4 22.32C89.8267 22.2667 90.32 22.16 90.88 22C91.4667 21.8667 91.92 21.6133 92.24 21.24C92.56 20.8667 92.72 20.3867 92.72 19.8V15.16C92.72 13.8 91.12 13.12 87.92 13.12C85.7867 13.12 83.3467 13.3333 80.6 13.76V11C82.8933 10.76 85.32 10.64 87.88 10.64C90.84 10.64 92.9867 10.9733 94.32 11.64C95.68 12.28 96.36 13.3867 96.36 14.96V19.96C96.36 20.7867 96.0267 21.48 95.36 22.04C94.6933 22.5733 93.84 22.92 92.8 23.08V23.24C93.44 23.3467 93.96 23.4667 94.36 23.6C94.7867 23.7067 95.24 23.88 95.72 24.12C96.6533 24.6 97.12 25.44 97.12 26.64V31.84C97.12 32.7467 96.92 33.56 96.52 34.28C96.12 35 95.6133 35.56 95 35.96C94.4667 36.3333 93.76 36.64 92.88 36.88C92 37.0933 91.1333 37.24 90.28 37.32C89.2667 37.3733 88.3867 37.4 87.64 37.4ZM142.859 31.32H129.939V28.16L141.699 11.04H146.179V28.56H148.979V31.32H146.179V37H142.859V31.32ZM142.859 28.56V14.2L133.139 28.56H142.859ZM189.839 37.4C187.679 37.4 185.132 37.16 182.199 36.68V33.8C185.292 34.44 187.879 34.76 189.959 34.76C191.585 34.76 192.772 34.5333 193.519 34.08C194.292 33.6 194.679 32.8267 194.679 31.76V26.6C194.679 25.48 194.199 24.76 193.239 24.44C192.785 24.3067 192.359 24.2267 191.959 24.2C191.585 24.1467 191.092 24.12 190.479 24.12H182.799V11.04H197.759V13.76H186.399V21.64H192.399C193.465 21.64 194.412 21.7733 195.239 22.04C196.065 22.28 196.799 22.7067 197.439 23.32C198.105 23.9867 198.439 24.8533 198.439 25.92V31.84C198.439 32.7733 198.265 33.6 197.919 34.32C197.599 35.0133 197.159 35.56 196.599 35.96C196.092 36.3333 195.439 36.64 194.639 36.88C193.865 37.12 193.092 37.2667 192.319 37.32C191.359 37.3733 190.532 37.4 189.839 37.4Z" fill="#3377AA"/>
<path d="M9.16675 24H34.8334" stroke="#3377AA" stroke-width="2.75" stroke-linecap="round" stroke-linejoin="round"/>
<path d="M9.16675 24L16.5001 31.3333" stroke="#3377AA" stroke-width="2.75" stroke-linecap="round" stroke-linejoin="round"/>
<path d="M9.16675 24.0001L16.5001 16.6667" stroke="#3377AA" stroke-width="2.75" stroke-linecap="round" stroke-linejoin="round"/>
<path d="M244.167 24H269.833" stroke="#3377AA" stroke-width="2.75" stroke-linecap="round" stroke-linejoin="round"/>
<path d="M262.5 31.3333L269.833 24" stroke="#3377AA" stroke-width="2.75" stroke-linecap="round" stroke-linejoin="round"/>
<path d="M262.5 16.6667L269.833 24.0001" stroke="#3377AA" stroke-width="2.75" stroke-linecap="round" stroke-linejoin="round"/>
<path d="M62 32H62.0183" stroke="#3377AA" stroke-width="2.75" stroke-linecap="round" stroke-linejoin="round"/>
<path d="M44 32H44.0183" stroke="#3377AA" stroke-width="2.75" stroke-linecap="round" stroke-linejoin="round"/>
<path d="M53 32H53.0183" stroke="#3377AA" stroke-width="2.75" stroke-linecap="round" stroke-linejoin="round"/>
<path d="M235 32H235.018" stroke="#3377AA" stroke-width="2.75" stroke-linecap="round" stroke-linejoin="round"/>
<path d="M217 32H217.018" stroke="#3377AA" stroke-width="2.75" stroke-linecap="round" stroke-linejoin="round"/>
<path d="M226 32H226.018" stroke="#3377AA" stroke-width="2.75" stroke-linecap="round" stroke-linejoin="round"/>
</svg>
