<svg width="400" height="150" viewBox="0 0 400 150" fill="none" xmlns="http://www.w3.org/2000/svg">
<path fill-rule="evenodd" clip-rule="evenodd" d="M38.6353 36.0046L14.5266 43.899C14.1758 44.0139 13.8703 44.2365 13.6535 44.5351C13.4368 44.8337 13.3198 45.193 13.3194 45.5619L13.2877 73.2514C13.2875 73.4179 13.3201 73.5827 13.3837 73.7366C13.4473 73.8904 13.5406 74.0303 13.6583 74.148C13.776 74.2658 13.9158 74.3593 14.0696 74.423C14.2235 74.4868 14.3884 74.5196 14.5549 74.5196L38.5637 74.5221C38.9002 74.5222 39.223 74.3886 39.461 74.1508C39.6989 73.913 39.8327 73.5905 39.8327 73.2542L39.8407 36.8782C39.8408 36.733 39.8064 36.5898 39.7404 36.4604C39.6744 36.3311 39.5787 36.2192 39.461 36.1339C39.3434 36.0487 39.2073 35.9925 39.0637 35.9701C38.9202 35.9476 38.7733 35.9594 38.6353 36.0046ZM58.9303 0.0906295L1.11685 31.2323C0.779193 31.4142 0.497084 31.684 0.300452 32.0132C0.10382 32.3424 -1.70497e-06 32.7186 0 33.102L0.000369438 116.482C0.000370803 116.866 0.103807 117.243 0.299805 117.573C0.495803 117.903 0.777123 118.174 1.1142 118.357L12.2013 124.402C12.3159 124.464 12.4449 124.496 12.5755 124.493C12.7061 124.491 12.8338 124.455 12.9462 124.388C13.0585 124.321 13.1515 124.227 13.2161 124.113C13.2807 124 13.3146 123.871 13.3145 123.741L13.3029 96.2794C13.3029 96.127 13.337 95.9767 13.4029 95.8393C13.4688 95.702 13.5647 95.5811 13.6835 95.4858C13.8023 95.3904 13.9411 95.323 14.0895 95.2884C14.2379 95.2538 14.3922 95.253 14.541 95.286L38.6039 100.623C38.9552 100.701 39.2694 100.897 39.4946 101.177C39.7198 101.458 39.8425 101.807 39.8425 102.166L39.8429 138.221C39.8429 138.605 39.9464 138.982 40.1423 139.312C40.3383 139.642 40.6195 139.913 40.9565 140.097L58.9371 149.908C59.0518 149.971 59.1807 150.002 59.3113 150C59.4419 149.998 59.5697 149.961 59.682 149.895C59.7944 149.828 59.8874 149.733 59.9521 149.62C60.0167 149.506 60.0507 149.378 60.0507 149.248L60.0472 0.757122C60.0472 0.626098 60.0132 0.497316 59.9485 0.38337C59.8838 0.269425 59.7906 0.174214 59.678 0.107048C59.5655 0.0398817 59.4374 0.00306099 59.3063 0.00018274C59.1753 -0.00269551 59.0457 0.0284697 58.9303 0.0906295H58.9303Z" fill="#3377AA"/>
<path d="M73.9124 0.170246L131.187 31.1283C131.525 31.3107 131.807 31.5809 132.003 31.9103C132.2 32.2398 132.303 32.6161 132.303 32.9996L132.301 47.4862C132.301 47.6315 132.266 47.7747 132.2 47.9042C132.134 48.0336 132.038 48.1455 131.921 48.2308C131.803 48.3161 131.667 48.3723 131.523 48.3949C131.379 48.4174 131.233 48.4057 131.094 48.3605L93.8788 36.2087C93.7406 36.1635 93.5937 36.1518 93.4501 36.1743C93.3066 36.1969 93.1703 36.2531 93.0527 36.3384C92.935 36.4237 92.8393 36.5356 92.7732 36.6651C92.7072 36.7945 92.6727 36.9377 92.6727 37.083L92.6719 112.071C92.6719 112.217 92.7064 112.36 92.7724 112.489C92.8384 112.619 92.9342 112.731 93.0519 112.816C93.1695 112.901 93.3057 112.957 93.4492 112.98C93.5928 113.002 93.7397 112.99 93.8778 112.945L131.084 100.782C131.222 100.737 131.369 100.725 131.512 100.748C131.656 100.77 131.792 100.826 131.91 100.912C132.027 100.997 132.123 101.109 132.189 101.238C132.255 101.367 132.29 101.511 132.29 101.656L132.29 117.858L73.9115 149.665C73.7968 149.728 73.6677 149.76 73.5371 149.757C73.4064 149.755 73.2786 149.718 73.1663 149.652C73.0539 149.585 72.9608 149.49 72.8962 149.377C72.8315 149.263 72.7975 149.135 72.7975 149.004L72.7967 0.835136C72.7967 0.704235 72.8307 0.575578 72.8954 0.461761C72.9601 0.347945 73.0532 0.252871 73.1657 0.185848C73.2782 0.118825 73.4062 0.08215 73.5371 0.0794153C73.6681 0.0766807 73.7975 0.107978 73.9127 0.170246H73.9124Z" fill="#99CCEE"/>
<path d="M149.371 60.5928H157.535L167.589 88.4649H160.8L158.308 81.1211H148.125L145.676 88.4649H139.059L149.371 60.5928ZM156.847 76.6547L153.324 66.1758H153.152L149.629 76.6547H156.847Z" fill="black"/>
<path d="M170.683 60.5928H183.229C186.953 60.5928 189.646 61.0509 191.307 61.967C192.969 62.8546 193.799 64.3577 193.799 66.4764V71.3723C193.799 73.0042 193.212 74.2926 192.038 75.2374C190.892 76.1536 189.359 76.7406 187.44 76.9983L195.518 88.4649H187.784L180.48 77.5136H177.386V88.4649H170.683V60.5928ZM183.143 73.0901C184.719 73.0901 185.793 72.8897 186.366 72.4889C186.939 72.0594 187.225 71.2434 187.225 70.0409V68.0654C187.225 67.0347 186.91 66.3332 186.28 65.961C185.679 65.5602 184.633 65.3598 183.143 65.3598H177.386V73.0901H183.143Z" fill="black"/>
<path d="M211.717 88.8944C210.456 88.8944 209.325 88.8371 208.322 88.7226C207.348 88.6081 206.274 88.3933 205.1 88.0784C203.782 87.7348 202.694 87.291 201.834 86.7471C200.975 86.1744 200.259 85.3871 199.686 84.385C199.084 83.3829 198.784 82.1947 198.784 80.8205V68.5808C198.784 62.9691 203.095 60.1633 211.717 60.1633C213.923 60.1633 216.873 60.4782 220.568 61.1081V66.1328C217.245 65.3312 214.324 64.9303 211.803 64.9303C210.743 64.9303 209.912 64.959 209.311 65.0162C208.738 65.0735 208.136 65.2166 207.506 65.4457C206.16 65.9038 205.487 66.9202 205.487 68.4949V80.3481C205.487 82.8676 207.792 84.1273 212.404 84.1273C214.381 84.1273 217.159 83.7122 220.74 82.8819V87.9496C217.675 88.5794 214.667 88.8944 211.717 88.8944Z" fill="black"/>
<path d="M225.037 60.5928H231.74V71.7588H243.599V60.5928H250.302V88.4649H243.599V76.5258H231.74V88.4649H225.037V60.5928Z" fill="black"/>
<path d="M256.317 60.5928H263.02V88.4649H256.317V60.5928Z" fill="black"/>
<path d="M281.367 88.8944C280.107 88.8944 278.975 88.8371 277.973 88.7226C276.999 88.6081 275.924 88.3933 274.75 88.0784C273.432 87.7348 272.344 87.291 271.484 86.7471C270.625 86.1744 269.909 85.3871 269.336 84.385C268.735 83.3829 268.434 82.1947 268.434 80.8205V68.5808C268.434 62.9691 272.745 60.1633 281.367 60.1633C283.573 60.1633 286.523 60.4782 290.218 61.1081V66.1328C286.896 65.3312 283.974 64.9303 281.453 64.9303C280.393 64.9303 279.562 64.959 278.961 65.0162C278.388 65.0735 277.786 65.2166 277.156 65.4457C275.81 65.9038 275.137 66.9202 275.137 68.4949V80.3481C275.137 82.8676 277.443 84.1273 282.055 84.1273C284.031 84.1273 286.81 83.7122 290.39 82.8819V87.9496C287.325 88.5794 284.317 88.8944 281.367 88.8944Z" fill="black"/>
<path d="M294.687 60.5928H307.233C310.957 60.5928 313.65 61.0509 315.311 61.967C316.973 62.8546 317.803 64.3577 317.803 66.4764V71.3723C317.803 73.0042 317.216 74.2926 316.042 75.2374C314.896 76.1536 313.363 76.7406 311.444 76.9983L319.522 88.4649H311.788L304.483 77.5136H301.39V88.4649H294.687V60.5928ZM307.147 73.0901C308.723 73.0901 309.797 72.8897 310.37 72.4889C310.943 72.0594 311.229 71.2434 311.229 70.0409V68.0654C311.229 67.0347 310.914 66.3332 310.284 65.961C309.682 65.5602 308.637 65.3598 307.147 65.3598H301.39V73.0901H307.147Z" fill="black"/>
<path d="M330.779 60.5928H338.943L348.998 88.4649H342.209L339.717 81.1211H329.533L327.084 88.4649H320.467L330.779 60.5928ZM338.256 76.6547L334.733 66.1758H334.561L331.037 76.6547H338.256Z" fill="black"/>
<path d="M352.091 60.5928H373.79V65.3598H358.794V72.1883H372.372V76.9553H358.794V88.4649H352.091V60.5928Z" fill="black"/>
<path d="M384.747 65.3598H376.153V60.5928H400V65.3598H391.449V88.4649H384.747V65.3598Z" fill="black"/>
</svg>
