<svg width="560" height="560" viewBox="0 0 560 560" fill="none" xmlns="http://www.w3.org/2000/svg">
<g opacity="0.15">
<path d="M116.667 93.3333H210L256.667 210L198.333 245C223.322 295.669 264.331 336.678 315 361.667L350 303.333L466.667 350V443.333C466.667 455.71 461.75 467.58 452.998 476.332C444.247 485.083 432.377 490 420 490C328.983 484.469 243.137 445.818 178.659 381.341C114.182 316.863 75.5312 231.017 70 140C70 127.623 74.9167 115.753 83.6683 107.002C92.42 98.25 104.29 93.3333 116.667 93.3333" stroke="#99CCEE" stroke-width="8.33333" stroke-linecap="round" stroke-linejoin="round"/>
<path d="M350 163.333C362.377 163.333 374.247 168.25 382.998 177.002C391.75 185.753 396.667 197.623 396.667 210" stroke="#99CCEE" stroke-width="8.33333" stroke-linecap="round" stroke-linejoin="round"/>
<path d="M350 70C387.13 70 422.74 84.75 448.995 111.005C475.25 137.26 490 172.87 490 210" stroke="#99CCEE" stroke-width="8.33333" stroke-linecap="round" stroke-linejoin="round"/>
</g>
</svg>
